<svg width="127" height="26" viewBox="0 0 127 26" fill="none" xmlns="http://www.w3.org/2000/svg">
<path fill-rule="evenodd" clip-rule="evenodd" d="M8.38167 10.9747V15.2605L0.000903586 19.9455L0 19.9446V0.819336H4.36974V12.6753L8.38167 10.9747Z" fill="#373435"/>
<path fill-rule="evenodd" clip-rule="evenodd" d="M9.13367 10.9748V15.2605L17.5144 19.9456V19.9447V0.819397H13.1447V12.6754L9.13367 10.9748Z" fill="#0093DD"/>
<path fill-rule="evenodd" clip-rule="evenodd" d="M126.682 19.7893C125.602 20.064 124.639 20.1986 123.786 20.1986C120.821 20.1986 119.335 18.5523 119.335 15.2605V7.68306H117.715V5.67168H119.335V1.5694H121.731V5.67168H126.682V7.68306H121.731V14.1717C121.731 15.3518 121.796 16.1704 121.921 16.6231C122.052 17.0767 122.292 17.4337 122.649 17.6939C123.006 17.9514 123.594 18.0824 124.412 18.0824C125.057 18.0824 125.771 17.9297 126.555 17.6252H126.68V19.7893L126.681 19.7902L126.682 19.7893Z" fill="#373435"/>
<path fill-rule="evenodd" clip-rule="evenodd" d="M106.266 19.0449V16.3495H106.396C108.077 17.5911 109.81 18.2136 111.587 18.2136C113.834 18.2136 114.954 17.5088 114.954 16.102C114.954 15.4134 114.719 14.9309 114.248 14.6562C113.775 14.377 112.781 14.0987 111.271 13.8204C109.263 13.4463 107.94 12.924 107.295 12.2482C106.655 11.5768 106.333 10.7157 106.333 9.65758C106.333 8.39889 106.85 7.35886 107.887 6.54021C108.928 5.71705 110.326 5.30862 112.085 5.30862C113.771 5.30862 115.356 5.66554 116.845 6.38389V8.95279H116.719C115.186 7.88113 113.584 7.34621 111.907 7.34621C111.04 7.34621 110.304 7.51157 109.695 7.8468C109.086 8.18203 108.78 8.679 108.78 9.34133C108.78 10.0073 109.024 10.4907 109.508 10.8042C109.996 11.1133 111.005 11.4142 112.547 11.7006C113.822 11.94 114.754 12.1976 115.351 12.4677C115.948 12.7424 116.44 13.1508 116.827 13.6948C117.21 14.2388 117.406 14.9409 117.406 15.7984C117.406 17.1095 116.862 18.1802 115.777 19.0079C114.693 19.8392 113.23 20.253 111.383 20.253C109.625 20.253 107.918 19.8527 106.267 19.0467L106.266 19.0449Z" fill="#373435"/>
<path fill-rule="evenodd" clip-rule="evenodd" d="M98.4825 20.3045C96.4757 20.3045 94.8772 19.6386 93.689 18.3022C92.4963 16.9658 91.9044 15.1279 91.9044 12.7849C91.9044 10.4554 92.4963 8.61754 93.6818 7.2721C94.87 5.92666 96.4684 5.2562 98.4843 5.2562C100.474 5.2562 102.068 5.93208 103.262 7.28204C104.459 8.62747 105.055 10.4645 105.055 12.7858C105.055 15.1116 104.459 16.9441 103.27 18.2895C102.077 19.635 100.483 20.3054 98.4843 20.3054H98.4834L98.4825 20.3045ZM98.4825 7.31999C95.7438 7.31999 94.3766 9.14071 94.3766 12.7849C94.3766 14.5839 94.7335 15.942 95.4519 16.861C96.1712 17.779 97.1805 18.2407 98.4825 18.2407C99.7584 18.2407 100.76 17.7835 101.487 16.8691C102.214 15.9501 102.58 14.592 102.58 12.7849C102.58 9.14071 101.213 7.31999 98.4825 7.31999Z" fill="#373435"/>
<path fill-rule="evenodd" clip-rule="evenodd" d="M89.81 19.9122H87.4146V11.7817C87.4146 10.0622 87.1878 8.92005 86.7351 8.36344C86.286 7.80593 85.5071 7.52762 84.4011 7.52762C83.1777 7.52762 81.806 8.1023 80.2952 9.25166V19.9113H77.8953V0.819397L80.2952 0.826626V7.23215C81.8847 5.91291 83.4786 5.2551 85.077 5.2551C88.2332 5.2551 89.81 7.05414 89.81 10.6549V19.9131V19.9122Z" fill="#373435"/>
<path fill-rule="evenodd" clip-rule="evenodd" d="M69.1647 20.3045C67.1578 20.3045 65.5593 19.6386 64.3711 18.3022C63.1784 16.9658 62.5865 15.1279 62.5865 12.7849C62.5865 10.4554 63.1784 8.61754 64.363 7.2721C65.5521 5.92666 67.1497 5.2562 69.1665 5.2562C71.1562 5.2562 72.7501 5.93208 73.9437 7.28204C75.141 8.62747 75.7373 10.4645 75.7373 12.7858C75.7373 15.1116 75.141 16.9441 73.9519 18.2895C72.7591 19.635 71.1652 20.3054 69.1665 20.3054H69.1656L69.1647 20.3045ZM69.1647 7.31999C66.4259 7.31999 65.0588 9.14071 65.0588 12.7849C65.0588 14.5839 65.4157 15.942 66.134 16.861C66.8533 17.779 67.8626 18.2407 69.1647 18.2407C70.4405 18.2407 71.4417 17.7835 72.1691 16.8691C72.8965 15.9501 73.2624 14.592 73.2624 12.7849C73.2624 9.14071 71.8944 7.31999 69.1647 7.31999Z" fill="#373435"/>
<path fill-rule="evenodd" clip-rule="evenodd" d="M60.4136 18.3031C60.4136 20.6976 59.8733 22.4695 58.7935 23.6062C57.7137 24.7465 56.0195 25.3167 53.7027 25.3167C52.266 25.3167 50.8211 25.1116 49.3655 24.7023V22.2418H49.4956C51.1672 22.8463 52.64 23.1472 53.906 23.1472C55.3427 23.1472 56.3881 22.8336 57.0369 22.202C57.6893 21.5749 58.0173 20.5991 58.0173 19.2708V17.9742C57.242 18.5787 56.5318 19.0187 55.8921 19.2889C55.2478 19.5636 54.4255 19.6991 53.4235 19.6991C51.7121 19.6991 50.3621 19.0847 49.3646 17.8612C48.3724 16.6332 47.8718 14.8956 47.8718 12.6484C47.8718 10.3542 48.4989 8.55156 49.7576 7.23233C51.0109 5.91309 52.4837 5.25076 54.177 5.25076C55.527 5.25076 56.8074 5.58599 58.0182 6.26097L58.1709 5.66912H60.4136V18.3013L60.4127 18.3031H60.4136ZM58.0182 15.9989V8.22627C56.8517 7.69135 55.7095 7.42118 54.5945 7.42118C53.2617 7.42118 52.2208 7.86936 51.4717 8.76662C50.7226 9.66297 50.3486 10.9443 50.3486 12.6032C50.3486 14.2713 50.6404 15.5038 51.2205 16.2908C51.8042 17.0832 52.7268 17.4808 53.9855 17.4808C55.3879 17.4808 56.7333 16.9883 58.0182 15.9998V15.9989Z" fill="#373435"/>
<path fill-rule="evenodd" clip-rule="evenodd" d="M40.1101 20.3045C38.1033 20.3045 36.5048 19.6386 35.3166 18.3022C34.1239 16.9658 33.5311 15.1279 33.5311 12.7849C33.5311 10.4554 34.123 8.61754 35.3085 7.2721C36.4967 5.92666 38.0951 5.2562 40.111 5.2562C42.1007 5.2562 43.6947 5.93208 44.8883 7.28204C46.0856 8.62747 46.6819 10.4645 46.6819 12.7858C46.6819 15.1116 46.0856 16.9441 44.8964 18.2895C43.7037 19.635 42.1098 20.3054 40.111 20.3054H40.1101V20.3045ZM40.1101 7.31999C37.3714 7.31999 36.0042 9.14071 36.0042 12.7849C36.0042 14.5839 36.3612 15.942 37.0795 16.861C37.7988 17.779 38.8081 18.2407 40.1101 18.2407C41.3851 18.2407 42.3872 17.7835 43.1146 16.8691C43.8419 15.9501 44.2079 14.592 44.2079 12.7849C44.2079 9.14071 42.8408 7.31999 40.1101 7.31999Z" fill="#373435"/>
<path fill-rule="evenodd" clip-rule="evenodd" d="M31.4594 19.9105H29.064V11.78C29.064 10.0596 28.8372 8.91837 28.3845 8.36176C27.9363 7.80424 27.1565 7.52594 26.0506 7.52594C24.8271 7.52594 23.4555 8.10062 21.9447 9.24998V19.9096H19.5447V0.822235H21.9447V7.22866C23.5341 5.90942 25.1271 5.25161 26.7255 5.25161C29.8827 5.25161 31.4585 7.05065 31.4585 10.6514V19.9096L31.4594 19.9105Z" fill="#373435"/>
</svg>
