<svg width="84" height="76" viewBox="0 0 84 76" fill="none" xmlns="http://www.w3.org/2000/svg">
  <path opacity="0.4" d="M83.6663 54.4176C83.6663 66.0426 74.333 75.4593 62.708 75.5009H62.6663H21.3746C9.79128 75.5009 0.332947 66.1259 0.332947 54.5009V54.4593C0.332947 54.4593 0.357947 36.0176 0.39128 26.7426C0.395447 25.0009 2.39545 24.0259 3.75795 25.1093C13.6579 32.9634 31.3621 47.2843 31.5829 47.4718C34.5413 49.8426 38.2913 51.1801 42.1246 51.1801C45.958 51.1801 49.708 49.8426 52.6663 47.4259C52.8871 47.2801 70.1955 33.3884 80.2455 25.4051C81.6121 24.3176 83.6205 25.2926 83.6246 27.0301C83.6663 36.2343 83.6663 54.4176 83.6663 54.4176Z" fill="#FDFDFD" />
  <path d="M81.4834 11.6401C77.875 4.84008 70.775 0.498413 62.9584 0.498413H21.375C13.5584 0.498413 6.45836 4.84008 2.85002 11.6401C2.04169 13.1609 2.42502 15.0567 3.77086 16.1317L34.7084 40.8776C36.875 42.6276 39.5 43.4984 42.125 43.4984C42.1417 43.4984 42.1542 43.4984 42.1667 43.4984C42.1792 43.4984 42.1959 43.4984 42.2084 43.4984C44.8334 43.4984 47.4584 42.6276 49.625 40.8776L80.5625 16.1317C81.9084 15.0567 82.2917 13.1609 81.4834 11.6401Z" fill="#FDFDFD" />
</svg>
