<svg width="12" height="12" viewBox="0 0 16 16" fill="none" xmlns="http://www.w3.org/2000/svg">
<g clip-path="url(#clip0_115:688)">
<path d="M7.80477 7.62791C8.85269 7.62791 9.76011 7.25206 10.5015 6.51051C11.243 5.76909 11.6188 4.86191 11.6188 3.81386C11.6188 2.76618 11.243 1.85888 10.5014 1.11721C9.75987 0.375908 8.85257 6.10352e-05 7.80477 6.10352e-05C6.75672 6.10352e-05 5.84954 0.375908 5.10812 1.11733C4.36669 1.85876 3.99072 2.76606 3.99072 3.81386C3.99072 4.86191 4.36669 5.76921 5.10824 6.51063C5.84978 7.25194 6.75708 7.62791 7.80477 7.62791Z" fill="white"/>
<path d="M14.4791 12.1765C14.4577 11.8679 14.4145 11.5313 14.3508 11.1759C14.2865 10.8178 14.2038 10.4793 14.1047 10.1699C14.0024 9.8501 13.8632 9.53429 13.6912 9.23166C13.5126 8.91755 13.3029 8.64403 13.0675 8.41895C12.8214 8.18349 12.5201 7.99418 12.1717 7.85609C11.8245 7.71873 11.4397 7.64914 11.0281 7.64914C10.8664 7.64914 10.7101 7.71546 10.4082 7.91203C10.2224 8.0332 10.0051 8.17334 9.76246 8.32834C9.55503 8.46051 9.27402 8.58435 8.92693 8.69646C8.58829 8.80604 8.24446 8.86161 7.9051 8.86161C7.56573 8.86161 7.22202 8.80604 6.88302 8.69646C6.53629 8.58447 6.25528 8.46063 6.04809 8.32847C5.80779 8.17491 5.59033 8.03477 5.40174 7.9119C5.1002 7.71534 4.94374 7.64902 4.7821 7.64902C4.37037 7.64902 3.9857 7.71873 3.63861 7.85621C3.29043 7.99406 2.989 8.18337 2.74267 8.41907C2.50744 8.64427 2.29759 8.91767 2.11927 9.23166C1.94736 9.53429 1.80818 9.84997 1.70573 10.17C1.60679 10.4794 1.52403 10.8178 1.45976 11.1759C1.39609 11.5308 1.35284 11.8675 1.33146 12.1768C1.31044 12.4798 1.2998 12.7943 1.2998 13.1119C1.2998 13.9385 1.56257 14.6077 2.08074 15.1012C2.5925 15.5882 3.26965 15.8353 4.09311 15.8353H11.7178C12.5413 15.8353 13.2182 15.5883 13.7301 15.1012C14.2483 14.608 14.5111 13.9387 14.5111 13.1118C14.511 12.7927 14.5002 12.478 14.4791 12.1765Z" fill="white"/>
</g>
<defs>
<clipPath id="clip0_115:688">
<rect width="15.8351" height="15.8352" fill="white"/>
</clipPath>
</defs>
</svg>
